# xmcd CD database file
# Copyright (C) 1995-1998 Ti Kan
#
# Track frame offsets:
#	150
#	26277
#	42577
#	69072
#	87110
#	107020
#	130910
#	149657
#	180467
#
# Disc length: 2650 seconds
#
# Revision: 2
# Processed by: cddbd v1.4PL0 Copyright (c) Steve Scherf et al.
# Submitted via: CDex 1.30Release
#
DISCID=720a5809
DTITLE=Ellen Whyte and Reflex Blue - Different Point of Blue
DYEAR=2001
DGENRE=Blues
TTITLE0=See in You
TTITLE1=Ch' Got it
TTITLE2=I Commit
TTITLE3=I Need You
TTITLE4=Montgomery Blue
TTITLE5=1-800-Blues-4-U
TTITLE6=If You Ever See My Baby
TTITLE7=Too Bad for You
TTITLE8=Out of Control
EXTD=YEAR: 2001 ID3G:   0
EXTT0=
EXTT1=
EXTT2=
EXTT3=
EXTT4=
EXTT5=
EXTT6=
EXTT7=
EXTT8=
PLAYORDER=
